<?xml version="1.0" encoding="UTF-8" standalone="no"?>
<svg
   xmlns:dc="http://purl.org/dc/elements/1.1/"
   xmlns:cc="http://creativecommons.org/ns#"
   xmlns:rdf="http://www.w3.org/1999/02/22-rdf-syntax-ns#"
   xmlns:svg="http://www.w3.org/2000/svg"
   xmlns="http://www.w3.org/2000/svg"
   xmlns:sodipodi="http://sodipodi.sourceforge.net/DTD/sodipodi-0.dtd"
   xmlns:inkscape="http://www.inkscape.org/namespaces/inkscape"
   version="1.1"
   x="0px"
   y="0px"
   viewBox="0 0 24 16"
   xml:space="preserve"
   id="svg32"
   sodipodi:docname="noun_Insert Table_237519.svg"
   width="24"
   height="16"
   inkscape:version="1.0.1 (0767f8302a, 2020-10-17)"><metadata
     id="metadata38"><rdf:RDF><cc:Work
         rdf:about=""><dc:format>image/svg+xml</dc:format><dc:type
           rdf:resource="http://purl.org/dc/dcmitype/StillImage" /></cc:Work></rdf:RDF></metadata><defs
     id="defs36" /><sodipodi:namedview
     pagecolor="#ffffff"
     bordercolor="#666666"
     borderopacity="1"
     objecttolerance="10"
     gridtolerance="10"
     guidetolerance="10"
     inkscape:pageopacity="0"
     inkscape:pageshadow="2"
     inkscape:window-width="1920"
     inkscape:window-height="1026"
     id="namedview34"
     showgrid="false"
     inkscape:zoom="20.223254"
     inkscape:cx="8.346891"
     inkscape:cy="18.22446"
     inkscape:window-x="0"
     inkscape:window-y="28"
     inkscape:window-maximized="1"
     inkscape:current-layer="svg32" /><g
     id="g26"
     transform="translate(0,-4)"><g
       id="g4"><path
         d="M 23.5,20 H 0.5 C 0.224,20 0,19.776 0,19.5 V 4.5 C 0,4.224 0.224,4 0.5,4 h 23 C 23.776,4 24,4.224 24,4.5 v 15 C 24,19.776 23.776,20 23.5,20 Z M 1,19 H 23 V 5 H 1 Z"
         id="path2" /></g><g
       id="g8"><path
         d="M 23.5,8 H 0.5 C 0.224,8 0,7.776 0,7.5 0,7.224 0.224,7 0.5,7 h 23 C 23.776,7 24,7.224 24,7.5 24,7.776 23.776,8 23.5,8 Z"
         id="path6" /></g><g
       id="g12"><path
         d="M 23.5,12 H 0.5 C 0.224,12 0,11.776 0,11.5 0,11.224 0.224,11 0.5,11 h 23 c 0.276,0 0.5,0.224 0.5,0.5 0,0.276 -0.224,0.5 -0.5,0.5 z"
         id="path10" /></g><g
       id="g16"><path
         d="M 23.5,16 H 0.5 C 0.224,16 0,15.776 0,15.5 0,15.224 0.224,15 0.5,15 h 23 c 0.276,0 0.5,0.224 0.5,0.5 0,0.276 -0.224,0.5 -0.5,0.5 z"
         id="path14" /></g><g
       id="g20"><path
         d="m 8.542,20 c -0.276,0 -0.5,-0.224 -0.5,-0.5 v -12 c 0,-0.276 0.224,-0.5 0.5,-0.5 0.276,0 0.5,0.224 0.5,0.5 v 12 c 0,0.276 -0.224,0.5 -0.5,0.5 z"
         id="path18" /></g><g
       id="g24"><path
         d="M 15.5,20 C 15.224,20 15,19.776 15,19.5 V 8 C 15,7.724 15.224,7.5 15.5,7.5 15.776,7.5 16,7.724 16,8 v 11.5 c 0,0.276 -0.224,0.5 -0.5,0.5 z"
         id="path22" /></g></g></svg>
